<mxfile host="app.diagrams.net" modified="2021-05-13T08:20:32.339Z" agent="5.0 (Windows NT 10.0; Win64; x64) AppleWebKit/537.36 (KHTML, like Gecko) Chrome/90.0.4430.93 Safari/537.36 Edg/90.0.818.56" etag="qB7iTs-1pbIrgwh1Fz9b" version="14.6.12" type="github">
  <diagram name="Page-1" id="b5b7bab2-c9e2-2cf4-8b2a-24fd1a2a6d21">
    <mxGraphModel dx="2062" dy="1154" grid="1" gridSize="10" guides="1" tooltips="1" connect="1" arrows="1" fold="1" page="1" pageScale="1" pageWidth="827" pageHeight="1169" background="#ffffff" math="0" shadow="0">
      <root>
        <mxCell id="0" />
        <mxCell id="1" parent="0" />
        <mxCell id="iYccVyNMG8m_rvMF1CmS-1" value="Единая карта" style="ellipse;shape=umlEntity;whiteSpace=wrap;html=1;" parent="1" vertex="1">
          <mxGeometry x="490" y="120" width="80" height="80" as="geometry" />
        </mxCell>
        <mxCell id="iYccVyNMG8m_rvMF1CmS-2" value="Платежная система" style="ellipse;shape=umlEntity;whiteSpace=wrap;html=1;" parent="1" vertex="1">
          <mxGeometry x="250" y="120" width="80" height="80" as="geometry" />
        </mxCell>
        <mxCell id="iYccVyNMG8m_rvMF1CmS-3" value="Счет в банке" style="ellipse;shape=umlEntity;whiteSpace=wrap;html=1;" parent="1" vertex="1">
          <mxGeometry x="100" y="120" width="80" height="80" as="geometry" />
        </mxCell>
        <mxCell id="iYccVyNMG8m_rvMF1CmS-4" value="" style="endArrow=none;dashed=1;html=1;" parent="1" edge="1">
          <mxGeometry width="50" height="50" relative="1" as="geometry">
            <mxPoint x="413" y="220" as="sourcePoint" />
            <mxPoint x="413" y="100" as="targetPoint" />
          </mxGeometry>
        </mxCell>
        <mxCell id="iYccVyNMG8m_rvMF1CmS-5" value="Пользователь карты" style="ellipse;shape=umlEntity;whiteSpace=wrap;html=1;" parent="1" vertex="1">
          <mxGeometry x="650" y="120" width="80" height="80" as="geometry" />
        </mxCell>
        <mxCell id="iYccVyNMG8m_rvMF1CmS-6" value="Пользователь карты" style="shape=umlLifeline;participant=umlActor;perimeter=lifelinePerimeter;whiteSpace=wrap;html=1;container=1;collapsible=0;recursiveResize=0;verticalAlign=top;spacingTop=36;outlineConnect=0;" parent="1" vertex="1">
          <mxGeometry x="90" y="370" width="20" height="300" as="geometry" />
        </mxCell>
        <mxCell id="iYccVyNMG8m_rvMF1CmS-8" value="Терминал оплаты" style="shape=umlLifeline;perimeter=lifelinePerimeter;whiteSpace=wrap;html=1;container=1;collapsible=0;recursiveResize=0;outlineConnect=0;" parent="1" vertex="1">
          <mxGeometry x="230" y="370" width="100" height="300" as="geometry" />
        </mxCell>
        <mxCell id="iYccVyNMG8m_rvMF1CmS-17" value="" style="edgeStyle=orthogonalEdgeStyle;rounded=0;orthogonalLoop=1;jettySize=auto;html=1;" parent="1" source="iYccVyNMG8m_rvMF1CmS-9" target="iYccVyNMG8m_rvMF1CmS-16" edge="1">
          <mxGeometry relative="1" as="geometry">
            <Array as="points">
              <mxPoint x="590" y="530" />
              <mxPoint x="590" y="530" />
            </Array>
          </mxGeometry>
        </mxCell>
        <mxCell id="iYccVyNMG8m_rvMF1CmS-9" value="Система оплаты" style="shape=umlLifeline;perimeter=lifelinePerimeter;whiteSpace=wrap;html=1;container=1;collapsible=0;recursiveResize=0;outlineConnect=0;" parent="1" vertex="1">
          <mxGeometry x="440" y="370" width="100" height="300" as="geometry" />
        </mxCell>
        <mxCell id="iYccVyNMG8m_rvMF1CmS-10" value="" style="endArrow=classic;html=1;" parent="1" source="iYccVyNMG8m_rvMF1CmS-6" target="iYccVyNMG8m_rvMF1CmS-8" edge="1">
          <mxGeometry width="50" height="50" relative="1" as="geometry">
            <mxPoint x="800" y="590" as="sourcePoint" />
            <mxPoint x="240" y="540" as="targetPoint" />
            <Array as="points">
              <mxPoint x="190" y="480" />
            </Array>
          </mxGeometry>
        </mxCell>
        <mxCell id="iYccVyNMG8m_rvMF1CmS-11" value="Приложил карту для оплаты" style="text;html=1;align=center;verticalAlign=middle;resizable=0;points=[];autosize=1;strokeColor=none;" parent="1" vertex="1">
          <mxGeometry x="107.5" y="450" width="170" height="20" as="geometry" />
        </mxCell>
        <mxCell id="iYccVyNMG8m_rvMF1CmS-12" value="" style="endArrow=classic;html=1;" parent="1" source="iYccVyNMG8m_rvMF1CmS-8" target="iYccVyNMG8m_rvMF1CmS-9" edge="1">
          <mxGeometry width="50" height="50" relative="1" as="geometry">
            <mxPoint x="800" y="590" as="sourcePoint" />
            <mxPoint x="500" y="540" as="targetPoint" />
            <Array as="points">
              <mxPoint x="390" y="500" />
            </Array>
          </mxGeometry>
        </mxCell>
        <mxCell id="iYccVyNMG8m_rvMF1CmS-13" value="Запрос на проведение оплаты" style="text;html=1;align=center;verticalAlign=middle;resizable=0;points=[];autosize=1;strokeColor=none;" parent="1" vertex="1">
          <mxGeometry x="290" y="480" width="190" height="20" as="geometry" />
        </mxCell>
        <mxCell id="iYccVyNMG8m_rvMF1CmS-14" value="&lt;h1&gt;Сущности&lt;/h1&gt;&lt;p&gt;Счет в банке и платежная система являются внешними сущностями по отношению к системе&lt;/p&gt;" style="text;html=1;strokeColor=none;fillColor=none;spacing=5;spacingTop=-20;whiteSpace=wrap;overflow=hidden;rounded=0;" parent="1" vertex="1">
          <mxGeometry x="15" y="10" width="535" height="80" as="geometry" />
        </mxCell>
        <mxCell id="iYccVyNMG8m_rvMF1CmS-15" value="&lt;h1&gt;Общение между сервисами во время проведения оплаты&lt;/h1&gt;" style="text;html=1;strokeColor=none;fillColor=none;spacing=5;spacingTop=-20;whiteSpace=wrap;overflow=hidden;rounded=0;" parent="1" vertex="1">
          <mxGeometry x="15" y="280" width="705" height="70" as="geometry" />
        </mxCell>
        <mxCell id="iYccVyNMG8m_rvMF1CmS-27" value="" style="edgeStyle=orthogonalEdgeStyle;rounded=0;orthogonalLoop=1;jettySize=auto;html=1;" parent="1" source="iYccVyNMG8m_rvMF1CmS-16" target="iYccVyNMG8m_rvMF1CmS-26" edge="1">
          <mxGeometry relative="1" as="geometry" />
        </mxCell>
        <mxCell id="iYccVyNMG8m_rvMF1CmS-16" value="Сервис бонусной системы" style="shape=umlLifeline;perimeter=lifelinePerimeter;whiteSpace=wrap;html=1;container=1;collapsible=0;recursiveResize=0;outlineConnect=0;" parent="1" vertex="1">
          <mxGeometry x="620" y="370" width="100" height="300" as="geometry" />
        </mxCell>
        <mxCell id="iYccVyNMG8m_rvMF1CmS-18" value="Сумма для перевода от&lt;br&gt;&amp;nbsp;пользователя к юрлицу" style="text;html=1;align=center;verticalAlign=middle;resizable=0;points=[];autosize=1;strokeColor=none;" parent="1" vertex="1">
          <mxGeometry x="682" y="490" width="150" height="30" as="geometry" />
        </mxCell>
        <mxCell id="iYccVyNMG8m_rvMF1CmS-20" value="Результат проведения&lt;br&gt;&amp;nbsp;транзакции" style="text;html=1;align=center;verticalAlign=middle;resizable=0;points=[];autosize=1;strokeColor=none;" parent="1" vertex="1">
          <mxGeometry x="687" y="540" width="140" height="30" as="geometry" />
        </mxCell>
        <mxCell id="iYccVyNMG8m_rvMF1CmS-21" value="" style="endArrow=classic;html=1;" parent="1" source="iYccVyNMG8m_rvMF1CmS-9" target="iYccVyNMG8m_rvMF1CmS-8" edge="1">
          <mxGeometry width="50" height="50" relative="1" as="geometry">
            <mxPoint x="475" y="610" as="sourcePoint" />
            <mxPoint x="295" y="610" as="targetPoint" />
            <Array as="points">
              <mxPoint x="385.5" y="610" />
            </Array>
          </mxGeometry>
        </mxCell>
        <mxCell id="iYccVyNMG8m_rvMF1CmS-22" value="Ответ о результате транзакции" style="text;html=1;align=center;verticalAlign=middle;resizable=0;points=[];autosize=1;strokeColor=none;" parent="1" vertex="1">
          <mxGeometry x="285" y="590" width="190" height="20" as="geometry" />
        </mxCell>
        <mxCell id="iYccVyNMG8m_rvMF1CmS-23" value="" style="endArrow=classic;html=1;" parent="1" source="iYccVyNMG8m_rvMF1CmS-8" target="iYccVyNMG8m_rvMF1CmS-6" edge="1">
          <mxGeometry width="50" height="50" relative="1" as="geometry">
            <mxPoint x="800" y="570" as="sourcePoint" />
            <mxPoint x="850" y="520" as="targetPoint" />
            <Array as="points">
              <mxPoint x="190" y="640" />
            </Array>
          </mxGeometry>
        </mxCell>
        <mxCell id="iYccVyNMG8m_rvMF1CmS-24" value="Ответ получен" style="text;html=1;align=center;verticalAlign=middle;resizable=0;points=[];autosize=1;strokeColor=none;" parent="1" vertex="1">
          <mxGeometry x="130" y="620" width="100" height="20" as="geometry" />
        </mxCell>
        <mxCell id="iYccVyNMG8m_rvMF1CmS-26" value="Банк / платежная система" style="shape=umlLifeline;perimeter=lifelinePerimeter;whiteSpace=wrap;html=1;container=1;collapsible=0;recursiveResize=0;outlineConnect=0;" parent="1" vertex="1">
          <mxGeometry x="800" y="370" width="100" height="300" as="geometry" />
        </mxCell>
        <mxCell id="iYccVyNMG8m_rvMF1CmS-28" value="" style="endArrow=classic;html=1;" parent="1" source="iYccVyNMG8m_rvMF1CmS-26" target="iYccVyNMG8m_rvMF1CmS-16" edge="1">
          <mxGeometry width="50" height="50" relative="1" as="geometry">
            <mxPoint x="800" y="570" as="sourcePoint" />
            <mxPoint x="670" y="590" as="targetPoint" />
            <Array as="points">
              <mxPoint x="750" y="570" />
            </Array>
          </mxGeometry>
        </mxCell>
        <mxCell id="iYccVyNMG8m_rvMF1CmS-30" value="" style="endArrow=classic;html=1;" parent="1" source="iYccVyNMG8m_rvMF1CmS-16" target="iYccVyNMG8m_rvMF1CmS-9" edge="1">
          <mxGeometry width="50" height="50" relative="1" as="geometry">
            <mxPoint x="800" y="570" as="sourcePoint" />
            <mxPoint x="850" y="520" as="targetPoint" />
            <Array as="points">
              <mxPoint x="590" y="590" />
            </Array>
          </mxGeometry>
        </mxCell>
        <mxCell id="iYccVyNMG8m_rvMF1CmS-32" value="Ответ о результате транзакции" style="text;html=1;align=center;verticalAlign=middle;resizable=0;points=[];autosize=1;strokeColor=none;" parent="1" vertex="1">
          <mxGeometry x="490" y="565" width="190" height="20" as="geometry" />
        </mxCell>
      </root>
    </mxGraphModel>
  </diagram>
</mxfile>
